<?xml version="1.0" encoding="utf-8"?>
<!-- Generator: Adobe Illustrator 28.0.0, SVG Export Plug-In . SVG Version: 6.00 Build 0)  -->
<svg version="1.1" id="Layer_1" xmlns="http://www.w3.org/2000/svg" xmlns:xlink="http://www.w3.org/1999/xlink" x="0px" y="0px"
	 viewBox="0 0 1280 1280" style="enable-background:new 0 0 1280 1280;" xml:space="preserve">
<style type="text/css">
	.st0{fill:#141414;}
	.st1{fill:#F7F7F7;}
</style>
<g>
	<rect x="-18.8" y="-15.2" class="st0" width="1317.5" height="1310.4"/>
	<g>
		<g>
			<path class="st1" d="M577.5,572.3L577.5,572.3c0-0.3,0-0.7,0-1c0-0.3,0-0.7,0-1l0,0c-0.5-13.5-10.8-28.5-10.8-28.5l-59.5-89
				c-2.3-3.4,0.2-7.9,4.2-7.9h41c1.6,0,3.2,0.8,4.1,2.1c7.7,10.6,42,58.1,54.4,76.4c13.5,20,13.1,46.3,13,47.9
				c0,1.6,0.5,27.9-13,47.9c-12.4,18.3-46.8,65.8-54.4,76.4c-1,1.3-2.5,2.1-4.1,2.1h-41c-4.1,0-6.5-4.5-4.2-7.9l59.5-89
				C566.7,600.8,577,585.8,577.5,572.3z"/>
			<path class="st1" d="M703.1,572.3L703.1,572.3c0-0.3,0-0.7,0-1c0-0.3,0-0.7,0-1l0,0c0.5-13.5,10.8-28.5,10.8-28.5l59.5-89
				c2.3-3.4-0.2-7.9-4.2-7.9h-41c-1.6,0-3.2,0.8-4.1,2.1c-7.7,10.6-42,58.1-54.4,76.4c-13.5,20-13.1,46.3-13,47.9
				c0,1.6-0.5,27.9,13,47.9c12.4,18.3,46.8,65.8,54.4,76.4c1,1.3,2.5,2.1,4.1,2.1h41c4.1,0,6.5-4.5,4.2-7.9l-59.5-89
				C713.9,600.8,703.6,585.8,703.1,572.3z"/>
		</g>
		<g>
			<g>
				<path class="st1" d="M613.7,812.9L613.7,812.9c0-0.1,0-0.1,0-0.2c0-0.1,0-0.1,0-0.2h0c-0.1-2.6-2.1-5.4-2.1-5.4l-11.3-16.9
					c-0.4-0.6,0-1.5,0.8-1.5h7.8c0.3,0,0.6,0.1,0.8,0.4c1.5,2,8,11,10.3,14.5c2.6,3.8,2.5,8.8,2.5,9.1c0,0.3,0.1,5.3-2.5,9.1
					c-2.4,3.5-8.9,12.5-10.3,14.5c-0.2,0.3-0.5,0.4-0.8,0.4h-7.8c-0.8,0-1.2-0.9-0.8-1.5l11.3-16.9
					C611.6,818.3,613.6,815.4,613.7,812.9z"/>
				<path class="st1" d="M636.6,812.9L636.6,812.9c0-0.1,0-0.1,0-0.2c0-0.1,0-0.1,0-0.2h0c0.1-2.6,2.1-5.4,2.1-5.4l11.3-16.9
					c0.4-0.6,0-1.5-0.8-1.5h-7.8c-0.3,0-0.6,0.1-0.8,0.4c-1.5,2-8,11-10.3,14.5c-2.6,3.8-2.5,8.8-2.5,9.1c0,0.3-0.1,5.3,2.5,9.1
					c2.4,3.5,8.9,12.5,10.3,14.5c0.2,0.3,0.5,0.4,0.8,0.4h7.8c0.8,0,1.2-0.9,0.8-1.5l-11.3-16.9
					C638.6,818.3,636.7,815.4,636.6,812.9z"/>
			</g>
			<g>
				<path class="st1" d="M370.9,835.9l-20.5-46.3c-0.3-0.8,0.2-1.6,1.1-1.6h8.5c0.5,0,0.9,0.3,1.1,0.7l18.1,43.2h-3.5l18.1-43.2
					c0.2-0.4,0.6-0.7,1.1-0.7h8.3c0.8,0,1.4,0.9,1.1,1.6L384,835.9c-0.2,0.4-0.6,0.7-1.1,0.7h-11
					C371.5,836.6,371.1,836.3,370.9,835.9z"/>
				<path class="st1" d="M422.2,784v6.2c0,0.6-0.5,1.2-1.2,1.2h-9c-0.6,0-1.2-0.5-1.2-1.2V784c0-0.6,0.5-1.2,1.2-1.2h9
					C421.7,782.8,422.2,783.3,422.2,784z M412.8,799.2h7.4c0.6,0,1.2,0.5,1.2,1.2v35.1c0,0.6-0.5,1.2-1.2,1.2h-7.4
					c-0.6,0-1.2-0.5-1.2-1.2v-35.1C411.6,799.7,412.1,799.2,412.8,799.2z"/>
				<path class="st1" d="M429.6,824.2h8.2c0.5,0,0.9,0.3,1.1,0.7c0.6,1.4,1.7,2.5,3.1,3.4c1.7,1.1,4,1.6,6.8,1.6
					c1.9,0,3.4-0.2,4.4-0.5c1.1-0.4,1.8-0.9,2.2-1.5c0.4-0.7,0.6-1.4,0.6-2.3c0-1.1-0.3-1.9-1-2.4c-0.7-0.6-1.7-1-3-1.4
					c-1.4-0.4-3.1-0.7-5.2-1c-2.1-0.4-4.1-0.8-6.1-1.3c-2-0.5-3.7-1.2-5.2-2c-1.5-0.8-2.7-1.9-3.6-3.2c-0.9-1.3-1.3-2.8-1.3-4.7
					c0-1.8,0.4-3.4,1.3-4.8c0.9-1.4,2.1-2.6,3.7-3.5c1.6-1,3.4-1.7,5.6-2.2c2.1-0.5,4.4-0.8,6.9-0.8c3.7,0,6.8,0.5,9.3,1.6
					c2.5,1.1,4.3,2.6,5.5,4.5c1,1.6,1.6,3.4,1.8,5.4c0.1,0.7-0.5,1.2-1.2,1.2h-6.5c-0.5,0-1-0.4-1.1-0.9c-0.4-1.4-1.2-2.5-2.2-3.2
					c-1.2-0.8-3.1-1.2-5.6-1.2c-2.5,0-4.3,0.4-5.6,1.1c-1.3,0.8-1.9,1.8-1.9,3.1c0,1.1,0.4,1.9,1.2,2.4c0.8,0.6,1.9,1,3.5,1.4
					c1.5,0.4,3.4,0.7,5.8,1.1c2,0.4,3.8,0.9,5.6,1.4c1.8,0.5,3.4,1.1,4.8,1.9c1.4,0.8,2.5,1.8,3.3,3.1c0.8,1.3,1.2,2.9,1.2,4.9
					c0,2.4-0.7,4.4-2.1,6.1c-1.4,1.7-3.3,2.9-5.9,3.8s-5.6,1.3-9.2,1.3c-3.2,0-5.9-0.3-8.2-1c-2.3-0.7-4.2-1.6-5.7-2.6
					c-1.5-1.1-2.7-2.2-3.5-3.5c-0.8-1.2-1.4-2.4-1.7-3.5C429.6,825.8,429.5,824.9,429.6,824.2z"/>
				<path class="st1" d="M484.8,784v6.2c0,0.6-0.5,1.2-1.2,1.2h-9c-0.6,0-1.2-0.5-1.2-1.2V784c0-0.6,0.5-1.2,1.2-1.2h9
					C484.3,782.8,484.8,783.3,484.8,784z M475.4,799.2h7.4c0.6,0,1.2,0.5,1.2,1.2v35.1c0,0.6-0.5,1.2-1.2,1.2h-7.4
					c-0.6,0-1.2-0.5-1.2-1.2v-35.1C474.2,799.7,474.7,799.2,475.4,799.2z"/>
				<path class="st1" d="M515.8,837.5c-4.7,0-8.9-0.8-12.5-2.3c-3.6-1.5-6.4-3.7-8.4-6.6c-2-2.9-3-6.4-3-10.6c0-4.2,1-7.8,3-10.7
					c2-2.9,4.8-5.2,8.4-6.7c3.6-1.5,7.7-2.3,12.5-2.3c4.7,0,8.8,0.8,12.4,2.3c3.5,1.5,6.3,3.7,8.3,6.7c2,2.9,3,6.5,3,10.7
					c0,4.2-1,7.8-3,10.6c-2,2.9-4.8,5.1-8.3,6.6C524.6,836.7,520.5,837.5,515.8,837.5z M515.8,830c2.6,0,5-0.5,7-1.4
					c2.1-0.9,3.7-2.3,4.9-4.1c1.2-1.8,1.8-3.9,1.8-6.5c0-2.6-0.6-4.8-1.8-6.6c-1.2-1.8-2.8-3.2-4.9-4.2c-2.1-1-4.4-1.4-7.1-1.4
					c-2.6,0-5,0.5-7.1,1.4c-2.1,1-3.8,2.3-5,4.1c-1.2,1.8-1.8,4-1.8,6.6c0,2.6,0.6,4.7,1.8,6.5c1.2,1.8,2.9,3.1,5,4.1
					C510.7,829.5,513.1,830,515.8,830z"/>
				<path class="st1" d="M547.9,799.2h7.4c0.6,0,1.2,0.5,1.2,1.2v35.1c0,0.6-0.5,1.2-1.2,1.2h-7.4c-0.6,0-1.2-0.5-1.2-1.2v-35.1
					C546.7,799.7,547.2,799.2,547.9,799.2z M573.9,798.4c2.3,0,4.4,0.3,6.4,0.9c2,0.6,3.7,1.5,5.1,2.8c1.5,1.3,2.6,2.8,3.4,4.8
					c0.8,1.9,1.2,4.2,1.2,6.9v21.7c0,0.6-0.5,1.2-1.2,1.2h-7.4c-0.6,0-1.2-0.5-1.2-1.2v-20c0-3.2-0.8-5.5-2.3-7
					c-1.5-1.5-4-2.2-7.5-2.2c-2.6,0-5,0.5-7.1,1.5c-2.1,1-3.8,2.3-5.1,3.8c-1.3,1.5-2.1,3.1-2.3,4.8l-0.1-3.7c0-0.1,0-0.2,0-0.2
					c0.3-1.7,0.8-3.4,1.7-5c0.9-1.7,2.1-3.2,3.6-4.6c1.5-1.4,3.3-2.5,5.5-3.3C568.8,798.8,571.2,798.4,573.9,798.4z"/>
				<path class="st1" d="M670.6,820.2h8c0.6,0,1,0.4,1.1,1c0.3,1.3,1.1,2.6,2.2,3.7c1.4,1.4,3.2,2.5,5.5,3.2
					c2.3,0.8,4.8,1.2,7.6,1.2c2.6,0,4.7-0.3,6.3-0.8c1.7-0.6,2.9-1.3,3.7-2.3c0.8-1,1.2-2.2,1.2-3.6c0-1.4-0.5-2.4-1.5-3.1
					c-1-0.7-2.6-1.3-4.7-1.8c-2.2-0.5-5-1-8.5-1.5c-2.8-0.4-5.4-1-7.8-1.7c-2.5-0.7-4.6-1.7-6.5-2.8c-1.9-1.2-3.4-2.6-4.4-4.2
					c-1.1-1.7-1.6-3.7-1.6-6c0-2.9,0.8-5.4,2.4-7.5c1.6-2.2,4.1-3.8,7.3-5c3.2-1.2,7.1-1.8,11.8-1.8c7,0,12.4,1.5,16.2,4.5
					c3.5,2.8,5.3,6.4,5.5,11.1c0,0.7-0.5,1.2-1.2,1.2h-7.6c-0.6,0-1.1-0.4-1.2-1c-0.4-2.4-1.6-4.2-3.6-5.4c-2.3-1.3-5.2-2-8.6-2
					c-4.2,0-7.5,0.8-9.8,2.5c-0.2,0.1-0.3,0.3-0.4,0.5c-1.1,2.4-1.2,4.3-0.1,5.7c0.5,0.7,1.4,1.3,2.6,1.8c1.2,0.5,2.8,1,4.9,1.4
					c2.1,0.5,4.6,0.9,7.7,1.4c2.9,0.4,5.5,0.9,7.8,1.6c2.3,0.7,4.3,1.6,6,2.6c1.7,1.1,3,2.4,3.9,4.1c0.9,1.7,1.4,3.7,1.4,6.1
					c0,3-0.8,5.5-2.3,7.7c-1.5,2.2-3.9,3.9-7.1,5.1c-3.2,1.2-7.3,1.8-12.4,1.8c-3.6,0-6.8-0.4-9.6-1.2c-2.8-0.8-5.1-1.8-7.1-3.1
					c-2-1.3-3.6-2.7-4.9-4.3c-1.3-1.6-2.1-3.1-2.7-4.7c-0.4-1-0.6-2-0.6-2.9C669.3,820.8,669.9,820.2,670.6,820.2z"/>
				<path class="st1" d="M722.1,799.2h26.7c0.6,0,1.2,0.5,1.2,1.2v5.3c0,0.6-0.5,1.2-1.2,1.2h-26.7c-0.6,0-1.2-0.5-1.2-1.2v-5.3
					C720.9,799.7,721.4,799.2,722.1,799.2z M731.7,789h7.4c0.6,0,1.2,0.5,1.2,1.2v45.3c0,0.6-0.5,1.2-1.2,1.2h-7.4
					c-0.6,0-1.2-0.5-1.2-1.2v-45.3C730.6,789.5,731.1,789,731.7,789z"/>
				<path class="st1" d="M790.2,818.6l0.1,2.4c0,0.1,0,0.1,0,0.2c-0.1,0.7-0.4,1.7-0.7,2.9c-0.4,1.3-1,2.7-1.8,4.3
					c-0.8,1.5-1.9,2.9-3.2,4.3c-1.3,1.4-2.9,2.5-4.8,3.4s-4.2,1.3-6.8,1.3c-2.1,0-4.1-0.3-6.1-0.8c-2-0.5-3.8-1.3-5.4-2.5
					c-1.6-1.2-2.9-2.8-3.8-4.8c-1-2-1.4-4.5-1.4-7.6v-21.5c0-0.6,0.5-1.2,1.2-1.2h7.4c0.6,0,1.2,0.5,1.2,1.2v19.8
					c0,2.4,0.4,4.3,1.2,5.7c0.8,1.4,1.9,2.3,3.4,2.9c1.5,0.6,3.3,0.8,5.3,0.8c2.7,0,5-0.6,7-1.8c2-1.2,3.5-2.6,4.8-4.3
					C788.9,821.8,789.8,820.2,790.2,818.6z M798.3,836.6h-7.4c-0.6,0-1.2-0.5-1.2-1.2v-35.1c0-0.6,0.5-1.2,1.2-1.2h7.4
					c0.6,0,1.2,0.5,1.2,1.2v35.1C799.5,836.1,798.9,836.6,798.3,836.6z"/>
				<path class="st1" d="M826.5,837.4c-3.8,0-7.2-0.8-10.2-2.4c-3-1.6-5.4-3.9-7.2-6.8c-1.8-2.9-2.6-6.3-2.6-10.2
					c0-4,0.9-7.4,2.6-10.3c1.7-2.9,4.1-5.2,7.1-6.8c3-1.6,6.4-2.4,10.3-2.4c3.4,0,6.2,0.5,8.6,1.5c2.4,1,4.3,2.4,5.7,4.2
					c1.5,1.8,2.5,3.8,3.2,6.2c0.7,2.4,1,4.9,1,7.7c0,2.2-0.4,4.5-1.1,6.7c-0.7,2.3-1.8,4.4-3.2,6.3c-1.5,1.9-3.4,3.5-5.7,4.7
					C832.7,836.8,829.9,837.4,826.5,837.4z M829.7,829.9c3,0,5.5-0.5,7.7-1.5c2.2-1,3.8-2.4,5-4.2c1.2-1.8,1.7-3.9,1.7-6.2
					c0-2.6-0.6-4.7-1.8-6.5c-1.2-1.8-2.8-3.1-5-4.1c-2.1-1-4.7-1.4-7.6-1.4c-4.2,0-7.4,1.1-9.7,3.3c-2.3,2.2-3.5,5.1-3.5,8.7
					c0,2.4,0.6,4.5,1.7,6.3s2.6,3.2,4.6,4.2C824.8,829.4,827.1,829.9,829.7,829.9z M845.2,784.2h7.4c0.6,0,1.2,0.5,1.2,1.2v50.1
					c0,0.6-0.5,1.2-1.2,1.2h-6.9c-0.6,0-1.1-0.4-1.2-1c-0.1-1-0.2-2.1-0.3-3.4c-0.2-1.8-0.2-3.5-0.2-5.2v-41.6
					C844.1,784.7,844.6,784.2,845.2,784.2z"/>
				<path class="st1" d="M875.6,784v6.2c0,0.6-0.5,1.2-1.2,1.2h-9c-0.6,0-1.2-0.5-1.2-1.2V784c0-0.6,0.5-1.2,1.2-1.2h9
					C875.1,782.8,875.6,783.3,875.6,784z M866.2,799.2h7.4c0.6,0,1.2,0.5,1.2,1.2v35.1c0,0.6-0.5,1.2-1.2,1.2h-7.4
					c-0.6,0-1.2-0.5-1.2-1.2v-35.1C865,799.7,865.5,799.2,866.2,799.2z"/>
				<path class="st1" d="M906.6,837.5c-4.7,0-8.9-0.8-12.4-2.3c-3.6-1.5-6.4-3.7-8.4-6.6c-2-2.9-3-6.4-3-10.6c0-4.2,1-7.8,3-10.7
					c2-2.9,4.8-5.2,8.4-6.7c3.6-1.5,7.7-2.3,12.4-2.3c4.7,0,8.8,0.8,12.4,2.3c3.5,1.5,6.3,3.7,8.3,6.7c2,2.9,3,6.5,3,10.7
					c0,4.2-1,7.8-3,10.6c-2,2.9-4.8,5.1-8.3,6.6C915.4,836.7,911.3,837.5,906.6,837.5z M906.6,830c2.6,0,5-0.5,7-1.4
					c2.1-0.9,3.7-2.3,4.9-4.1c1.2-1.8,1.8-3.9,1.8-6.5c0-2.6-0.6-4.8-1.8-6.6c-1.2-1.8-2.8-3.2-4.9-4.2c-2.1-1-4.4-1.4-7.1-1.4
					c-2.6,0-5,0.5-7.1,1.4c-2.1,1-3.8,2.3-5,4.1c-1.2,1.8-1.8,4-1.8,6.6c0,2.6,0.6,4.7,1.8,6.5c1.2,1.8,2.9,3.1,5,4.1
					C901.5,829.5,903.9,830,906.6,830z"/>
			</g>
		</g>
	</g>
</g>
</svg>
